<mxfile host="65bd71144e">
    <diagram id="Mwg1lfVXFPrMQnLUmevX" name="Page-1">
        <mxGraphModel dx="1456" dy="763" grid="1" gridSize="10" guides="1" tooltips="1" connect="1" arrows="1" fold="1" page="1" pageScale="1" pageWidth="827" pageHeight="1169" math="0" shadow="0">
            <root>
                <mxCell id="0"/>
                <mxCell id="1" parent="0"/>
                <mxCell id="22" value="" style="rounded=0;whiteSpace=wrap;html=1;dashed=1;dashPattern=1 1;strokeWidth=2;strokeColor=#9999FF;" parent="1" vertex="1">
                    <mxGeometry x="210" y="410" width="430" height="187" as="geometry"/>
                </mxCell>
                <mxCell id="2" value="" style="rounded=0;whiteSpace=wrap;html=1;dashed=1;dashPattern=1 1;strokeWidth=2;" parent="1" vertex="1">
                    <mxGeometry x="3" y="3" width="820" height="187" as="geometry"/>
                </mxCell>
                <mxCell id="3" value="&lt;div&gt;&lt;span&gt;&lt;b&gt;&lt;font style=&quot;font-size: 24px&quot; color=&quot;#00cccc&quot;&gt;Pages&lt;/font&gt;&lt;/b&gt;&lt;/span&gt;&lt;/div&gt;" style="text;html=1;strokeColor=none;fillColor=none;align=left;verticalAlign=middle;whiteSpace=wrap;rounded=0;" parent="1" vertex="1">
                    <mxGeometry x="730" y="10" width="80" height="30" as="geometry"/>
                </mxCell>
                <mxCell id="4" value="&lt;font color=&quot;#001933&quot; style=&quot;font-size: 14px&quot;&gt;&lt;b&gt;Home&lt;/b&gt;&lt;/font&gt;" style="rounded=1;whiteSpace=wrap;html=1;fillColor=#CCFFFF;" parent="1" vertex="1">
                    <mxGeometry x="40" y="80" width="120" height="60" as="geometry"/>
                </mxCell>
                <mxCell id="5" value="&lt;font color=&quot;#001933&quot; style=&quot;font-size: 14px&quot;&gt;&lt;b&gt;Profil&lt;/b&gt;&lt;/font&gt;" style="rounded=1;whiteSpace=wrap;html=1;fillColor=#CCFFFF;" parent="1" vertex="1">
                    <mxGeometry x="360" y="80" width="120" height="60" as="geometry"/>
                </mxCell>
                <mxCell id="6" value="&lt;font color=&quot;#001933&quot; style=&quot;font-size: 14px&quot;&gt;&lt;b&gt;Error&lt;/b&gt;&lt;/font&gt;" style="rounded=1;whiteSpace=wrap;html=1;fillColor=#CCFFFF;" parent="1" vertex="1">
                    <mxGeometry x="670" y="80" width="120" height="60" as="geometry"/>
                </mxCell>
                <mxCell id="7" value="" style="rounded=0;whiteSpace=wrap;html=1;dashed=1;dashPattern=1 1;strokeWidth=2;strokeColor=#99FF99;" parent="1" vertex="1">
                    <mxGeometry x="210" y="207" width="613" height="187" as="geometry"/>
                </mxCell>
                <mxCell id="9" value="&lt;font style=&quot;font-size: 14px&quot; color=&quot;#003300&quot;&gt;&lt;b&gt;Header&lt;/b&gt;&lt;/font&gt;" style="rounded=1;whiteSpace=wrap;html=1;fillColor=#CCFFCC;" parent="1" vertex="1">
                    <mxGeometry x="229" y="285.5" width="120" height="60" as="geometry"/>
                </mxCell>
                <mxCell id="30" value="" style="edgeStyle=none;html=1;startArrow=classicThin;startFill=1;endArrow=classicThin;endFill=1;strokeWidth=2;exitX=0.5;exitY=0;exitDx=0;exitDy=0;strokeColor=#B3B3B3;entryX=1;entryY=0.75;entryDx=0;entryDy=0;" parent="1" source="10" edge="1" target="5">
                    <mxGeometry relative="1" as="geometry">
                        <mxPoint x="480" y="110" as="targetPoint"/>
                        <Array as="points">
                            <mxPoint x="594" y="160"/>
                        </Array>
                    </mxGeometry>
                </mxCell>
                <mxCell id="10" value="&lt;font style=&quot;font-size: 14px&quot; color=&quot;#003300&quot;&gt;&lt;b&gt;Chart&lt;/b&gt;&lt;/font&gt;" style="rounded=1;whiteSpace=wrap;html=1;fillColor=#CCFFCC;" parent="1" vertex="1">
                    <mxGeometry x="534" y="285.5" width="120" height="60" as="geometry"/>
                </mxCell>
                <mxCell id="34" style="edgeStyle=none;html=1;exitX=0.5;exitY=0;exitDx=0;exitDy=0;entryX=1;entryY=0.5;entryDx=0;entryDy=0;startArrow=classicThin;startFill=1;endArrow=classicThin;endFill=1;strokeWidth=2;strokeColor=#66B2FF;" parent="1" source="11" target="4" edge="1">
                    <mxGeometry relative="1" as="geometry">
                        <Array as="points">
                            <mxPoint x="430" y="200"/>
                        </Array>
                    </mxGeometry>
                </mxCell>
                <mxCell id="11" value="&lt;font style=&quot;font-size: 14px&quot; color=&quot;#003300&quot;&gt;&lt;b&gt;PageMenu&lt;/b&gt;&lt;/font&gt;" style="rounded=1;whiteSpace=wrap;html=1;fillColor=#CCFFCC;" parent="1" vertex="1">
                    <mxGeometry x="382" y="285.5" width="120" height="60" as="geometry"/>
                </mxCell>
                <mxCell id="12" value="&lt;font style=&quot;font-size: 14px&quot; color=&quot;#003300&quot;&gt;&lt;b&gt;Summary&lt;/b&gt;&lt;/font&gt;" style="rounded=1;whiteSpace=wrap;html=1;fillColor=#CCFFCC;" parent="1" vertex="1">
                    <mxGeometry x="685" y="285.5" width="120" height="60" as="geometry"/>
                </mxCell>
                <mxCell id="13" value="" style="rounded=0;whiteSpace=wrap;html=1;dashed=1;dashPattern=1 1;strokeWidth=2;strokeColor=#FFCC99;" parent="1" vertex="1">
                    <mxGeometry x="3" y="207" width="187" height="183" as="geometry"/>
                </mxCell>
                <mxCell id="14" value="&lt;div&gt;&lt;span&gt;&lt;b&gt;&lt;font style=&quot;font-size: 24px&quot; color=&quot;#ff9933&quot;&gt;Service&lt;/font&gt;&lt;/b&gt;&lt;/span&gt;&lt;/div&gt;" style="text;html=1;strokeColor=none;fillColor=none;align=left;verticalAlign=middle;whiteSpace=wrap;rounded=0;" parent="1" vertex="1">
                    <mxGeometry x="15" y="217" width="97" height="30" as="geometry"/>
                </mxCell>
                <mxCell id="15" value="&lt;font style=&quot;font-size: 14px&quot; color=&quot;#331a00&quot;&gt;&lt;b&gt;userService&lt;/b&gt;&lt;/font&gt;" style="rounded=1;whiteSpace=wrap;html=1;fillColor=#FFE6CC;" parent="1" vertex="1">
                    <mxGeometry x="37" y="285.5" width="120" height="60" as="geometry"/>
                </mxCell>
                <mxCell id="16" value="" style="rounded=0;whiteSpace=wrap;html=1;dashed=1;dashPattern=1 1;strokeWidth=2;strokeColor=#FF9999;" parent="1" vertex="1">
                    <mxGeometry x="660" y="410" width="163" height="420" as="geometry"/>
                </mxCell>
                <mxCell id="40" style="edgeStyle=none;html=1;exitX=0.5;exitY=0;exitDx=0;exitDy=0;entryX=0.75;entryY=1;entryDx=0;entryDy=0;startArrow=classicThin;startFill=1;endArrow=classicThin;endFill=1;strokeWidth=2;strokeColor=#00FFFF;" parent="1" edge="1">
                    <mxGeometry relative="1" as="geometry">
                        <mxPoint x="745" y="488.5" as="sourcePoint"/>
                        <mxPoint x="624" y="345.5" as="targetPoint"/>
                        <Array as="points">
                            <mxPoint x="745" y="400"/>
                            <mxPoint x="650" y="400"/>
                            <mxPoint x="624" y="400"/>
                        </Array>
                    </mxGeometry>
                </mxCell>
                <mxCell id="18" value="&lt;font style=&quot;font-size: 14px&quot; color=&quot;#330000&quot;&gt;&lt;b&gt;averageSession&lt;/b&gt;&lt;/font&gt;" style="rounded=1;whiteSpace=wrap;html=1;fillColor=#FFCCCC;" parent="1" vertex="1">
                    <mxGeometry x="685" y="488.5" width="120" height="60" as="geometry"/>
                </mxCell>
                <mxCell id="41" style="edgeStyle=none;html=1;exitX=0;exitY=0.5;exitDx=0;exitDy=0;entryX=0.75;entryY=1;entryDx=0;entryDy=0;startArrow=classicThin;startFill=1;endArrow=classicThin;endFill=1;strokeWidth=2;strokeColor=#00FFFF;" parent="1" edge="1">
                    <mxGeometry relative="1" as="geometry">
                        <Array as="points">
                            <mxPoint x="650" y="601"/>
                            <mxPoint x="650" y="401"/>
                            <mxPoint x="624" y="401"/>
                        </Array>
                        <mxPoint x="685" y="601" as="sourcePoint"/>
                        <mxPoint x="624" y="346.5" as="targetPoint"/>
                    </mxGeometry>
                </mxCell>
                <mxCell id="19" value="&lt;font style=&quot;font-size: 14px&quot; color=&quot;#330000&quot;&gt;&lt;b&gt;dailyActivity&lt;/b&gt;&lt;/font&gt;" style="rounded=1;whiteSpace=wrap;html=1;fillColor=#FFCCCC;" parent="1" vertex="1">
                    <mxGeometry x="685" y="570" width="120" height="60" as="geometry"/>
                </mxCell>
                <mxCell id="20" value="&lt;font style=&quot;font-size: 14px&quot; color=&quot;#330000&quot;&gt;&lt;b&gt;performances&lt;/b&gt;&lt;/font&gt;" style="rounded=1;whiteSpace=wrap;html=1;fillColor=#FFCCCC;" parent="1" vertex="1">
                    <mxGeometry x="685" y="650" width="120" height="60" as="geometry"/>
                </mxCell>
                <mxCell id="21" value="&lt;font style=&quot;font-size: 14px&quot; color=&quot;#330000&quot;&gt;&lt;b&gt;score&lt;/b&gt;&lt;/font&gt;" style="rounded=1;whiteSpace=wrap;html=1;fillColor=#FFCCCC;" parent="1" vertex="1">
                    <mxGeometry x="685" y="730" width="120" height="60" as="geometry"/>
                </mxCell>
                <mxCell id="39" style="edgeStyle=none;html=1;exitX=0.5;exitY=0;exitDx=0;exitDy=0;startArrow=classicThin;startFill=1;endArrow=classicThin;endFill=1;strokeWidth=2;strokeColor=#FF8000;" parent="1" source="24" edge="1">
                    <mxGeometry relative="1" as="geometry">
                        <mxPoint x="570" y="350" as="targetPoint"/>
                        <Array as="points">
                            <mxPoint x="285" y="400"/>
                            <mxPoint x="570" y="400"/>
                        </Array>
                    </mxGeometry>
                </mxCell>
                <mxCell id="24" value="&lt;font style=&quot;font-size: 14px&quot; color=&quot;#000033&quot;&gt;&lt;b&gt;chartDimensions&lt;/b&gt;&lt;/font&gt;" style="rounded=1;whiteSpace=wrap;html=1;fillColor=#CCCCFF;" parent="1" vertex="1">
                    <mxGeometry x="225" y="488.5" width="120" height="60" as="geometry"/>
                </mxCell>
                <mxCell id="25" value="&lt;font style=&quot;font-size: 14px&quot; color=&quot;#000033&quot;&gt;&lt;b&gt;useUserService&lt;/b&gt;&lt;/font&gt;" style="rounded=1;whiteSpace=wrap;html=1;fillColor=#CCCCFF;" parent="1" vertex="1">
                    <mxGeometry x="505" y="488.5" width="120" height="60" as="geometry"/>
                </mxCell>
                <mxCell id="38" style="edgeStyle=none;html=1;exitX=0.5;exitY=0;exitDx=0;exitDy=0;startArrow=classicThin;startFill=1;endArrow=classicThin;endFill=1;strokeWidth=2;strokeColor=#FF8000;" parent="1" source="26" edge="1">
                    <mxGeometry relative="1" as="geometry">
                        <Array as="points">
                            <mxPoint x="426" y="400"/>
                            <mxPoint x="570" y="400"/>
                        </Array>
                        <mxPoint x="570" y="350" as="targetPoint"/>
                    </mxGeometry>
                </mxCell>
                <mxCell id="26" value="&lt;font style=&quot;font-size: 14px&quot; color=&quot;#000033&quot;&gt;&lt;b&gt;style&lt;/b&gt;&lt;/font&gt;" style="rounded=1;whiteSpace=wrap;html=1;fillColor=#CCCCFF;" parent="1" vertex="1">
                    <mxGeometry x="366" y="488.5" width="120" height="60" as="geometry"/>
                </mxCell>
                <mxCell id="27" style="edgeStyle=none;html=1;entryX=0.692;entryY=0;entryDx=0;entryDy=0;entryPerimeter=0;exitX=0.667;exitY=1.05;exitDx=0;exitDy=0;exitPerimeter=0;strokeWidth=2;strokeColor=#CCCC00;endArrow=classicThin;endFill=1;startArrow=classicThin;startFill=1;" parent="1" source="4" target="15" edge="1">
                    <mxGeometry relative="1" as="geometry">
                        <Array as="points">
                            <mxPoint x="120" y="230"/>
                        </Array>
                    </mxGeometry>
                </mxCell>
                <mxCell id="28" style="edgeStyle=none;html=1;strokeWidth=2;endArrow=classicThin;endFill=1;startArrow=classicThin;startFill=1;exitX=1.008;exitY=0.375;exitDx=0;exitDy=0;exitPerimeter=0;entryX=0.5;entryY=0;entryDx=0;entryDy=0;strokeColor=#FF0000;" parent="1" target="25" edge="1">
                    <mxGeometry relative="1" as="geometry">
                        <mxPoint x="157.96000000000004" y="312" as="sourcePoint"/>
                        <mxPoint x="610" y="454" as="targetPoint"/>
                        <Array as="points">
                            <mxPoint x="200" y="314"/>
                            <mxPoint x="200" y="430"/>
                            <mxPoint x="530" y="430"/>
                        </Array>
                    </mxGeometry>
                </mxCell>
                <mxCell id="29" style="edgeStyle=none;html=1;exitX=1;exitY=0.25;exitDx=0;exitDy=0;entryX=1;entryY=0.5;entryDx=0;entryDy=0;startArrow=classicThin;startFill=1;endArrow=classicThin;endFill=1;strokeWidth=2;strokeColor=#FF0000;" parent="1" source="5" target="25" edge="1">
                    <mxGeometry relative="1" as="geometry">
                        <Array as="points">
                            <mxPoint x="530" y="95"/>
                            <mxPoint x="670" y="160"/>
                            <mxPoint x="670" y="519"/>
                        </Array>
                    </mxGeometry>
                </mxCell>
                <mxCell id="31" style="edgeStyle=none;html=1;exitX=1;exitY=0.5;exitDx=0;exitDy=0;entryX=0.5;entryY=0;entryDx=0;entryDy=0;startArrow=classicThin;startFill=1;endArrow=classicThin;endFill=1;strokeColor=#CCCC00;strokeWidth=2;" parent="1" source="4" target="9" edge="1">
                    <mxGeometry relative="1" as="geometry">
                        <Array as="points">
                            <mxPoint x="289" y="200"/>
                        </Array>
                    </mxGeometry>
                </mxCell>
                <mxCell id="32" style="edgeStyle=none;html=1;exitX=0;exitY=0.5;exitDx=0;exitDy=0;startArrow=classicThin;startFill=1;endArrow=classicThin;endFill=1;strokeWidth=2;entryX=0.5;entryY=0;entryDx=0;entryDy=0;strokeColor=#CCCC00;" parent="1" source="5" target="9" edge="1">
                    <mxGeometry relative="1" as="geometry">
                        <mxPoint x="300" y="290" as="targetPoint"/>
                        <Array as="points">
                            <mxPoint x="289" y="110"/>
                        </Array>
                    </mxGeometry>
                </mxCell>
                <mxCell id="33" style="edgeStyle=none;html=1;exitX=0;exitY=0.5;exitDx=0;exitDy=0;entryX=0.5;entryY=0;entryDx=0;entryDy=0;startArrow=classicThin;startFill=1;endArrow=classicThin;endFill=1;strokeWidth=2;strokeColor=#CCCC00;" parent="1" source="6" target="9" edge="1">
                    <mxGeometry relative="1" as="geometry">
                        <Array as="points">
                            <mxPoint x="289" y="200"/>
                        </Array>
                    </mxGeometry>
                </mxCell>
                <mxCell id="36" style="edgeStyle=none;html=1;exitX=0;exitY=0.5;exitDx=0;exitDy=0;startArrow=classicThin;startFill=1;endArrow=classicThin;endFill=1;strokeWidth=2;entryX=0.5;entryY=0;entryDx=0;entryDy=0;strokeColor=#66B2FF;" parent="1" source="6" target="11" edge="1">
                    <mxGeometry relative="1" as="geometry">
                        <mxPoint x="440" y="280" as="targetPoint"/>
                        <Array as="points">
                            <mxPoint x="430" y="200"/>
                        </Array>
                    </mxGeometry>
                </mxCell>
                <mxCell id="35" style="edgeStyle=none;html=1;entryX=0.5;entryY=0;entryDx=0;entryDy=0;startArrow=classicThin;startFill=1;endArrow=classicThin;endFill=1;strokeWidth=2;exitX=0.5;exitY=1;exitDx=0;exitDy=0;strokeColor=#66B2FF;" parent="1" source="5" target="11" edge="1">
                    <mxGeometry relative="1" as="geometry">
                        <mxPoint x="442" y="130" as="sourcePoint"/>
                    </mxGeometry>
                </mxCell>
                <mxCell id="37" style="edgeStyle=none;html=1;exitX=0.5;exitY=0;exitDx=0;exitDy=0;startArrow=classicThin;startFill=1;endArrow=classicThin;endFill=1;strokeWidth=2;strokeColor=#B3B3B3;entryX=1;entryY=0.75;entryDx=0;entryDy=0;" parent="1" source="12" target="5" edge="1">
                    <mxGeometry relative="1" as="geometry">
                        <Array as="points">
                            <mxPoint x="745" y="200"/>
                        </Array>
                        <mxPoint x="480" y="110" as="targetPoint"/>
                    </mxGeometry>
                </mxCell>
                <mxCell id="17" value="&lt;div&gt;&lt;span&gt;&lt;b&gt;&lt;font style=&quot;font-size: 24px&quot; color=&quot;#ff3333&quot;&gt;Functions&lt;/font&gt;&lt;/b&gt;&lt;/span&gt;&lt;/div&gt;" style="text;html=1;strokeColor=none;align=left;verticalAlign=middle;whiteSpace=wrap;rounded=0;fillColor=#2a2a2a;" parent="1" vertex="1">
                    <mxGeometry x="689" y="420" width="124" height="30" as="geometry"/>
                </mxCell>
                <mxCell id="42" style="edgeStyle=none;html=1;exitX=0;exitY=0.5;exitDx=0;exitDy=0;entryX=0.75;entryY=1;entryDx=0;entryDy=0;startArrow=classicThin;startFill=1;endArrow=classicThin;endFill=1;strokeWidth=2;strokeColor=#00FFFF;" parent="1" edge="1">
                    <mxGeometry relative="1" as="geometry">
                        <mxPoint x="685" y="680" as="sourcePoint"/>
                        <mxPoint x="624" y="347.5" as="targetPoint"/>
                        <Array as="points">
                            <mxPoint x="650" y="680"/>
                            <mxPoint x="650" y="402"/>
                            <mxPoint x="624" y="402"/>
                        </Array>
                    </mxGeometry>
                </mxCell>
                <mxCell id="43" style="edgeStyle=none;html=1;exitX=0;exitY=0.5;exitDx=0;exitDy=0;entryX=0.75;entryY=1;entryDx=0;entryDy=0;startArrow=classicThin;startFill=1;endArrow=classicThin;endFill=1;strokeWidth=2;strokeColor=#00FFFF;" parent="1" edge="1">
                    <mxGeometry relative="1" as="geometry">
                        <mxPoint x="684" y="760" as="sourcePoint"/>
                        <mxPoint x="624" y="346.5" as="targetPoint"/>
                        <Array as="points">
                            <mxPoint x="649" y="760"/>
                            <mxPoint x="650" y="401"/>
                            <mxPoint x="624" y="401"/>
                        </Array>
                    </mxGeometry>
                </mxCell>
                <mxCell id="8" value="&lt;div&gt;&lt;span&gt;&lt;b&gt;&lt;font style=&quot;font-size: 24px&quot; color=&quot;#33ff33&quot;&gt;Components&lt;/font&gt;&lt;/b&gt;&lt;/span&gt;&lt;/div&gt;" style="text;html=1;strokeColor=none;align=left;verticalAlign=middle;whiteSpace=wrap;rounded=0;fillColor=#2a2a2a;" parent="1" vertex="1">
                    <mxGeometry x="655" y="217" width="150" height="30" as="geometry"/>
                </mxCell>
                <mxCell id="23" value="&lt;div&gt;&lt;span&gt;&lt;b&gt;&lt;font style=&quot;font-size: 24px&quot; color=&quot;#6666ff&quot;&gt;Utils&lt;/font&gt;&lt;/b&gt;&lt;/span&gt;&lt;/div&gt;" style="text;html=1;strokeColor=none;align=left;verticalAlign=middle;whiteSpace=wrap;rounded=0;fillColor=#2a2a2a;" parent="1" vertex="1">
                    <mxGeometry x="563" y="420" width="62" height="30" as="geometry"/>
                </mxCell>
                <mxCell id="44" value="" style="rounded=0;whiteSpace=wrap;html=1;dashed=1;dashPattern=1 1;strokeWidth=2;strokeColor=#FFFF33;" vertex="1" parent="1">
                    <mxGeometry x="3" y="408" width="187" height="190" as="geometry"/>
                </mxCell>
                <mxCell id="45" value="&lt;div&gt;&lt;span&gt;&lt;b&gt;&lt;font style=&quot;font-size: 24px&quot; color=&quot;#ffff00&quot;&gt;Models&lt;/font&gt;&lt;/b&gt;&lt;/span&gt;&lt;/div&gt;" style="text;html=1;strokeColor=none;fillColor=none;align=left;verticalAlign=middle;whiteSpace=wrap;rounded=0;" vertex="1" parent="1">
                    <mxGeometry x="15" y="420" width="97" height="30" as="geometry"/>
                </mxCell>
                <mxCell id="47" style="edgeStyle=none;html=1;exitX=0;exitY=0.5;exitDx=0;exitDy=0;entryX=0.5;entryY=0;entryDx=0;entryDy=0;strokeWidth=2;startArrow=classicThin;startFill=1;strokeColor=#80FF00;" edge="1" parent="1" source="46" target="5">
                    <mxGeometry relative="1" as="geometry">
                        <Array as="points">
                            <mxPoint x="10" y="519"/>
                            <mxPoint x="10" y="50"/>
                            <mxPoint x="420" y="50"/>
                        </Array>
                    </mxGeometry>
                </mxCell>
                <mxCell id="46" value="&lt;font style=&quot;font-size: 14px&quot; color=&quot;#333300&quot;&gt;&lt;b&gt;user&lt;/b&gt;&lt;/font&gt;" style="rounded=1;whiteSpace=wrap;html=1;fillColor=#FFFFCC;" vertex="1" parent="1">
                    <mxGeometry x="37" y="488.5" width="120" height="60" as="geometry"/>
                </mxCell>
            </root>
        </mxGraphModel>
    </diagram>
</mxfile>